PathFileType	4	(X/Y/Z)	C:\Users\WrightLab\Desktop\Jo\P1_boxCal2.trc
DataRate	CameraRate	NumFrames	NumMarkers	Units	OrigDataRate	OrigDataStartFrame	OrigNumFrames
100.00	100.00	       6	19	mm	100.00	310	       825
Frame#	Time	Headset_Front			Headset_Back			Headset_Left			Headset_Right			Left_Shoulder			Right_Shoulder			Sternum			C7			Left Elbow			Right Elbow			Left Wrist			Right Wrist			Left ASIS			Right ASIS			S2			Left Knee			Right Knee			Left Ankle			Right Ankle			
		X1	Y1	Z1	X2	Y2	Z2	X3	Y3	Z3	X4	Y4	Z4	X5	Y5	Z5	X6	Y6	Z6	X7	Y7	Z7	X8	Y8	Z8	X9	Y9	Z9	X10	Y10	Z10	X11	Y11	Z11	X12	Y12	Z12	X13	Y13	Z13	X14	Y14	Z14	X15	Y15	Z15	X16	Y16	Z16	X17	Y17	Z17	X18	Y18	Z18	X19	Y19	Z19	

310	3.090	-763.86304	1338.35193	-20.51085	-763.72754	1518.36243	-270.62799	-653.78027	1427.75610	-170.21307	-871.51080	1393.73804	-108.50278	-579.15210	1256.27356	-265.84595	-946.11566	1256.95972	-228.12245	-779.10590	1140.77454	-131.65552	-763.94049	1279.46338	-368.03714	-502.73901	938.77271	-311.45285	-1044.00317	991.71600	-248.46468	-428.77679	763.50629	-231.19510	-1040.77991	755.85327	-147.93324	-901.35504	874.44971	-157.31328	-706.02368	863.11951	-120.97665	-738.69617	895.23187	-437.09628	-916.56104	426.87262	-333.41907	-668.34607	472.14566	-76.26578	-847.73993	71.35223	-411.00919	-683.03552	100.99556	-32.59684	
311	3.100	-764.77826	1338.91724	-14.35412	-764.01337	1517.95313	-266.85739	-654.67535	1427.01746	-165.41577	-872.11761	1393.69519	-104.14534	-580.46735	1255.75562	-260.99475	-946.98535	1256.75305	-223.92355	-780.21289	1140.03345	-128.22594	-764.45123	1279.06360	-362.71280	-504.40216	938.53320	-308.52240	-1044.85950	991.30908	-242.90166	-429.75467	763.15448	-228.78873	-1040.21008	755.43518	-143.09138	-901.62146	872.47894	-150.77519	-707.03607	863.67572	-115.13532	-739.08875	895.08276	-431.00488	-916.47870	426.04315	-329.40396	-668.49976	471.81088	-72.29847	-847.77991	71.72966	-410.22763	-685.26221	101.88936	-18.81175	
312	3.110	-765.36884	1337.86975	-11.83908	-765.00671	1516.33301	-261.07962	-655.09167	1427.69531	-162.28920	-872.95392	1393.64636	-99.14290	-581.49146	1255.13123	-255.80370	-947.79755	1256.75720	-219.80603	-781.34344	1140.47876	-122.36209	-765.60925	1278.78711	-358.53207	-504.88864	938.16034	-303.57593	-1045.47095	991.20789	-239.25323	-431.14511	762.26575	-224.79971	-1039.68994	754.45697	-138.18504	-902.78247	872.13684	-146.04948	-707.26373	862.61841	-109.61251	-740.10651	894.50049	-426.56451	-916.61987	425.78735	-325.29987	-668.32678	471.09442	-67.96319	-847.78467	72.13738	-409.46130	-687.42688	102.72813	-6.29945	
313	3.120	-766.32892	1337.84448	-6.39330	-765.48700	1517.03589	-257.11914	-656.03516	1426.86792	-157.19760	-873.68091	1392.71838	-94.74429	-581.87830	1254.79480	-251.10510	-948.96539	1256.12708	-214.20699				-766.65411	1278.52356	-353.91263	-506.42432	937.74030	-299.55136	-1046.34216	990.40906	-234.17130	-431.98129	761.52087	-220.54529	-1040.31897	754.24243	-133.60966	-902.94867	871.24011	-140.76109	-708.45563	863.30609	-104.28897	-740.47540	894.18420	-420.53033	-916.69696	425.31470	-321.56360	-668.08020	469.86768	-63.83332	-847.87311	72.34861	-409.08374	-688.51105	104.99531	4.53423	
314	3.130	-767.00012	1337.99866	-1.64849	-765.93542	1516.59668	-252.34808	-656.58398	1426.51270	-154.00754	-873.67743	1393.03040	-89.72652	-582.86761	1254.21106	-246.46289	-949.60840	1255.68933	-209.52060	-782.21997	1139.43140	-113.98149	-767.27234	1277.86584	-349.21021	-507.79919	936.61206	-295.31866	-1047.94885	989.82813	-228.25558	-433.61530	760.68793	-216.57660	-1040.48816	753.16461	-128.59180	-903.67853	870.16364	-136.03500	-709.94891	861.79974	-100.77487	-741.18378	893.36371	-415.28143	-917.40869	424.96118	-317.60590	-667.93860	468.23898	-59.87282	-847.94397	72.61046	-408.68082	-690.36768	106.35045	13.99673	
315	3.140	-767.08649	1337.48438	1.40786	-766.49097	1515.99475	-248.35364	-657.13770	1425.83289	-148.05623	-875.00146	1392.73999	-85.75694	-583.56732	1253.40662	-241.50935	-950.25555	1255.29272	-205.02498	-783.25140	1139.08838	-106.97341	-767.77057	1276.75488	-343.87991	-509.58630	936.17181	-289.08472	-1049.12366	987.44006	-229.39735	-435.00082	759.53613	-212.09279	-1041.27942	753.21997	-124.00017	-903.95990	869.41675	-129.63521	-710.26440	861.67419	-94.90812	-741.69293	892.82672	-408.87045	-917.29462	424.26917	-313.42294	-667.13861	467.44202	-54.48248	-847.93817	72.96012	-407.30307	-691.40247	107.48488	22.89181	
